<?xml version="1.0" ?><svg height="48" viewBox="0 0 48 48" width="48" xmlns="http://www.w3.org/2000/svg"><defs><style>.cls-1{fill:#a4b0c0;}.cls-2{fill:#f1f2f2;}.cls-3{fill:#49aaee;}.cls-4{fill:#474c54;}</style></defs><title/><g data-name="12-Solution" id="_12-Solution"><path class="cls-1" d="M34,45v1a1,1,0,0,1-1,1H15a1,1,0,0,1-1-1V45l3-2V37H31v6Z"/><path class="cls-2" d="M47,28v5a4,4,0,0,1-4,4H5a4,4,0,0,1-4-4V28Z"/><path class="cls-1" d="M47,28H1V5A4,4,0,0,1,5,1H43a4,4,0,0,1,4,4Z"/><path class="cls-3" d="M42,5H6A1,1,0,0,0,5,6V28H43V6A1,1,0,0,0,42,5Z"/><path class="cls-4" d="M43,0H32a1,1,0,0,0,0,2H43a3,3,0,0,1,3,3V23a1,1,0,0,0,2,0V5A5.006,5.006,0,0,0,43,0Z"/><path class="cls-4" d="M47,27H6a1,1,0,0,0,0,2H46v4a3,3,0,0,1-3,3H5a3,3,0,0,1-3-3V5A3,3,0,0,1,5,2H16a1,1,0,0,0,0-2H5A5.006,5.006,0,0,0,0,5V33a5.006,5.006,0,0,0,5,5H16v4.465l-2.555,1.7A1,1,0,0,0,13,45v1a2,2,0,0,0,2,2H33a2,2,0,0,0,2-2V45a1,1,0,0,0-.445-.832L32,42.465V41a1,1,0,0,0-2,0v2a1,1,0,0,0,.445.832L33,45.535V46H15v-.465l2.555-1.7A1,1,0,0,0,18,43V38H43a5.006,5.006,0,0,0,5-5V28A1,1,0,0,0,47,27Z"/><path class="cls-4" d="M20.707,5.707,23,3.414V24a1,1,0,0,0,2,0V3.414l2.293,2.293a1,1,0,0,0,1.414-1.414l-4-4a1,1,0,0,0-1.414,0l-4,4a1,1,0,0,0,1.414,1.414Z"/><path class="cls-4" d="M28,15v9a1,1,0,0,0,2,0V15a1.882,1.882,0,0,1,2-2h6.586l-2.293,2.293a1,1,0,1,0,1.414,1.414l4-4a1,1,0,0,0,0-1.414l-4-4a1,1,0,1,0-1.414,1.414L38.586,11H32A3.887,3.887,0,0,0,28,15Z"/><path class="cls-4" d="M19,25a1,1,0,0,0,1-1V15a3.887,3.887,0,0,0-4-4H9.414l2.293-2.293a1,1,0,1,0-1.414-1.414l-4,4a1,1,0,0,0,0,1.414l4,4a1,1,0,0,0,1.414-1.414L9.414,13H16a1.882,1.882,0,0,1,2,2v9A1,1,0,0,0,19,25Z"/></g></svg>